HIERARCHY
ROOT Hips
{
  OFFSET 5.84602e-005 68.8428 3.50346
  CHANNELS 6 Xposition Yposition Zposition Zrotation Xrotation Yrotation
  JOINT Spine
  {
    OFFSET 0 8.597 -4.6522
    CHANNELS 3 Zrotation Xrotation Yrotation
    JOINT Spine1
    {
      OFFSET 0 7.8454 0.4098
      CHANNELS 3 Zrotation Xrotation Yrotation
      JOINT Spine2
      {
        OFFSET 0 9.7078 -2.1609
        CHANNELS 3 Zrotation Xrotation Yrotation
        JOINT Neck
        {
          OFFSET 0 21.8761 -0.4549
          CHANNELS 3 Zrotation Xrotation Yrotation
          JOINT Head
          {
            OFFSET 0 12.3537 3.3602
            CHANNELS 3 Zrotation Xrotation Yrotation
            End Site
            {
              OFFSET 0.0001 18.9506 0.5657
            }
          }
        }
        JOINT LeftShoulder
        {
          OFFSET 2.2086 21.1115 7.2329
          CHANNELS 3 Zrotation Xrotation Yrotation
          JOINT LeftArm
          {
            OFFSET 13.1193 3.0282 -4.8998
            CHANNELS 3 Zrotation Xrotation Yrotation
            JOINT LeftForeArm
            {
              OFFSET 27.4081 -0.0973053 -0.2375
              CHANNELS 3 Zrotation Xrotation Yrotation
              JOINT LeftHand
              {
                OFFSET 22.8641 0.0662994 -0.1369
                CHANNELS 3 Zrotation Xrotation Yrotation
                JOINT LeftHandIndex1
                {
                  OFFSET 8.8614 0.775009 2.4612
                  CHANNELS 3 Zrotation Xrotation Yrotation
                  JOINT LeftHandIndex2
                  {
                    OFFSET 3.3146 -0.808304 0.5841
                    CHANNELS 3 Zrotation Xrotation Yrotation
                    JOINT LeftHandIndex3
                    {
                      OFFSET 2.2628 -0.552002 0.3989
                      CHANNELS 3 Zrotation Xrotation Yrotation
                      End Site
                      {
                        OFFSET 1.6102 -0.4807 0.2612
                      }
                    }
                  }
                }
                JOINT LeftHandMiddle1
                {
                  OFFSET 8.9937 0.895004 0.2143
                  CHANNELS 3 Zrotation Xrotation Yrotation
                  JOINT LeftHandMiddle2
                  {
                    OFFSET 4.0984 0.0113983 -0.0242
                    CHANNELS 3 Zrotation Xrotation Yrotation
                    JOINT LeftHandMiddle3
                    {
                      OFFSET 2.2716 0.00689697 -0.0138001
                      CHANNELS 3 Zrotation Xrotation Yrotation
                      End Site
                      {
                        OFFSET 2.0404 -0.1441 0.0027
                      }
                    }
                  }
                }
                JOINT LeftHandRing1
                {
                  OFFSET 8.5234 0.597198 -2.0164
                  CHANNELS 3 Zrotation Xrotation Yrotation
                  JOINT LeftHandRing2
                  {
                    OFFSET 3.7188 -0.188293 -0.2328
                    CHANNELS 3 Zrotation Xrotation Yrotation
                    JOINT LeftHandRing3
                    {
                      OFFSET 2.1191 -0.106598 -0.1332
                      CHANNELS 3 Zrotation Xrotation Yrotation
                      End Site
                      {
                        OFFSET 1.8737 -0.2304 -0.0886
                      }
                    }
                  }
                }
                JOINT LeftHandPinky1
                {
                  OFFSET 7.9094 -0.601089 -3.4825
                  CHANNELS 3 Zrotation Xrotation Yrotation
                  JOINT LeftHandPinky2
                  {
                    OFFSET 2.2874 -0.477005 -0.6314
                    CHANNELS 3 Zrotation Xrotation Yrotation
                    JOINT LeftHandPinky3
                    {
                      OFFSET 1.6774 -0.349396 -0.4633
                      CHANNELS 3 Zrotation Xrotation Yrotation
                      End Site
                      {
                        OFFSET 1.4888 -0.4091 -0.3416
                      }
                    }
                  }
                }
                JOINT LeftHandThumb1
                {
                  OFFSET 1.833 -1.3875 1.3896
                  CHANNELS 3 Zrotation Xrotation Yrotation
                  JOINT LeftHandThumb2
                  {
                    OFFSET 3.4129 -1.121 2.5732
                    CHANNELS 3 Zrotation Xrotation Yrotation
                    JOINT LeftHandThumb3
                    {
                      OFFSET 2.2474 -0.804199 1.6192
                      CHANNELS 3 Zrotation Xrotation Yrotation
                      End Site
                      {
                        OFFSET 1.6527 -0.5689 1.1317
                      }
                    }
                  }
                }
              }
            }
          }
        }
        JOINT RightShoulder
        {
          OFFSET -2.2086 21.1115 7.2329
          CHANNELS 3 Zrotation Xrotation Yrotation
          JOINT RightArm
          {
            OFFSET -13.1216 3.0287 -4.9007
            CHANNELS 3 Zrotation Xrotation Yrotation
            JOINT RightForeArm
            {
              OFFSET -27.4081 -0.0973053 -0.2375
              CHANNELS 3 Zrotation Xrotation Yrotation
              JOINT RightHand
              {
                OFFSET -22.8641 0.0664063 -0.1369
                CHANNELS 3 Zrotation Xrotation Yrotation
                JOINT RightHandIndex1
                {
                  OFFSET -8.8614 0.774994 2.4612
                  CHANNELS 3 Zrotation Xrotation Yrotation
                  JOINT RightHandIndex2
                  {
                    OFFSET -3.3146 -0.808304 0.5841
                    CHANNELS 3 Zrotation Xrotation Yrotation
                    JOINT RightHandIndex3
                    {
                      OFFSET -2.2628 -0.552002 0.3989
                      CHANNELS 3 Zrotation Xrotation Yrotation
                      End Site
                      {
                        OFFSET -1.6102 -0.4807 0.2612
                      }
                    }
                  }
                }
                JOINT RightHandMiddle1
                {
                  OFFSET -8.9937 0.894989 0.2143
                  CHANNELS 3 Zrotation Xrotation Yrotation
                  JOINT RightHandMiddle2
                  {
                    OFFSET -4.0984 0.0113983 -0.0242
                    CHANNELS 3 Zrotation Xrotation Yrotation
                    JOINT RightHandMiddle3
                    {
                      OFFSET -2.2716 0.00691223 -0.0138001
                      CHANNELS 3 Zrotation Xrotation Yrotation
                      End Site
                      {
                        OFFSET -2.0404 -0.1441 0.0027
                      }
                    }
                  }
                }
                JOINT RightHandRing1
                {
                  OFFSET -8.5234 0.597198 -2.0164
                  CHANNELS 3 Zrotation Xrotation Yrotation
                  JOINT RightHandRing2
                  {
                    OFFSET -3.7188 -0.188309 -0.2328
                    CHANNELS 3 Zrotation Xrotation Yrotation
                    JOINT RightHandRing3
                    {
                      OFFSET -2.1191 -0.106598 -0.1332
                      CHANNELS 3 Zrotation Xrotation Yrotation
                      End Site
                      {
                        OFFSET -1.8737 -0.2304 -0.0886
                      }
                    }
                  }
                }
                JOINT RightHandPinky1
                {
                  OFFSET -7.9094 -0.601105 -3.4825
                  CHANNELS 3 Zrotation Xrotation Yrotation
                  JOINT RightHandPinky2
                  {
                    OFFSET -2.2874 -0.477005 -0.6314
                    CHANNELS 3 Zrotation Xrotation Yrotation
                    JOINT RightHandPinky3
                    {
                      OFFSET -1.6774 -0.349396 -0.4633
                      CHANNELS 3 Zrotation Xrotation Yrotation
                      End Site
                      {
                        OFFSET -1.4888 -0.4091 -0.3416
                      }
                    }
                  }
                }
                JOINT RightHandThumb1
                {
                  OFFSET -1.833 -1.38751 1.3896
                  CHANNELS 3 Zrotation Xrotation Yrotation
                  JOINT RightHandThumb2
                  {
                    OFFSET -3.41299 -1.12099 2.5732
                    CHANNELS 3 Zrotation Xrotation Yrotation
                    JOINT RightHandThumb3
                    {
                      OFFSET -2.24741 -0.804108 1.6192
                      CHANNELS 3 Zrotation Xrotation Yrotation
                      End Site
                      {
                        OFFSET -1.6527 -0.5689 1.1317
                      }
                    }
                  }
                }
              }
            }
          }
        }
      }
    }
  }
  JOINT RightUpLeg
  {
    OFFSET -9.1966 3.8861 -0.7581
    CHANNELS 3 Zrotation Xrotation Yrotation
    JOINT RightLeg
    {
      OFFSET -0.7359 -41.0265 0
      CHANNELS 3 Zrotation Xrotation Yrotation
      JOINT RightFoot
      {
        OFFSET 0 -40.2855 0
        CHANNELS 3 Zrotation Xrotation Yrotation
        JOINT RightToeBase
        {
          OFFSET 0 -5.6122 11.7359
          CHANNELS 3 Zrotation Xrotation Yrotation
          End Site
          {
            OFFSET 0 0 7.8731
          }
        }
      }
    }
  }
  JOINT LeftUpLeg
  {
    OFFSET 9.1965 3.8864 -0.7581
    CHANNELS 3 Zrotation Xrotation Yrotation
    JOINT LeftLeg
    {
      OFFSET 0.7359 -41.0268 0
      CHANNELS 3 Zrotation Xrotation Yrotation
      JOINT LeftFoot
      {
        OFFSET 0 -40.2855 0
        CHANNELS 3 Zrotation Xrotation Yrotation
        JOINT LeftToeBase
        {
          OFFSET 0 -5.6122 11.7359
          CHANNELS 3 Zrotation Xrotation Yrotation
          End Site
          {
            OFFSET 0 0 7.8731
          }
        }
      }
    }
  }
}
MOTION
Frames:	4
Frame Time:	0.0333333
5.84602e-005 68.8428 3.50346 0 0 -0 0 0 -0 0 0 -0 0 0 -0 0 0 -0 0 0 -0 0 0 -0 0 0 -0 0 0 -0 0 0 -0 0 0 -0 0 0 -0 0 0 -0 0 0 -0 -0.0146107 -8.87603e-005 -2.63497e-007 2.99804e-018 -2.42657e-020 -1.42182e-022 0 0 -0 -0.0187562 -0.001176 5.858e-005 5.06224e-018 3.88251e-019 1.21329e-020 0 0 -0 -0.012269 -0.00324817 0.000675346 -1.74678e-018 3.88251e-019 -0 0 0 -0 0 0 -0 0 0 -0 0 0 -0 0 0 -0 0 0 -0 0 0 -0 0 0 -0 0 0 -0 0 0 -0 0 0 -0 0.0149955 -9.10982e-005 2.64101e-007 -9.69331e-018 1.21329e-020 -4.7394e-023 0 0 -0 0.0189956 -0.00119102 -5.96516e-005 -5.41541e-019 0 2.42657e-020 0 0 -0 0.0122698 -0.00324857 -0.000673756 -2.00796e-019 0 -1.94126e-019 0 0 -0 0 0 -0 0 0 -0 3.39842 1.33031 -0.0637918 -5.65207e-008 0.834868 -0.000436188 -3.39935 -2.16518 -0.0642563 -8.89002e-024 -1.18485e-023 -1.48106e-024 -3.39844 1.35642 0.0640283 -3.18788e-007 0.782166 -0.000588827 3.39931 -2.13858 0.0634662 1.1399e-023 0 -0 
1.62983 43.5795 0.508526 0 38.9981 -0 0.259336 -4.77614 -0.262189 0.499265 -9.55338 -0.505242 0.499265 -9.55337 -0.505242 2.69134e-007 -0.260561 -9.57207e-007 -1.84355e-007 -0.344463 -7.98582e-008 -25.412 -16.2038 -37.6742 -67.6127 55.3315 26.1357 -6.72681 3.57461 -33.9121 9.57439 -40.2459 -19.893 3.10688e-007 -3.42979e-007 -4.42268e-007 1.55344e-006 -1.7149e-006 -2.21134e-006 5.17814e-007 -5.71632e-007 -7.37113e-007 3.10688e-007 -3.42979e-007 -4.42268e-007 -0.0146227 -9.69423e-005 4.12248e-007 5.1781e-007 -5.71538e-007 -7.37186e-007 3.10688e-007 -3.42979e-007 -4.42268e-007 -0.0187798 -0.00117398 5.16131e-005 5.17802e-007 -5.71511e-007 -7.37212e-007 3.10688e-007 -3.42979e-007 -4.42268e-007 -0.0122433 -0.00324192 0.000676309 5.17787e-007 -5.71557e-007 -7.37188e-007 3.10688e-007 -3.42979e-007 -4.42268e-007 1.55344e-006 -1.7149e-006 -2.21134e-006 5.17814e-007 -5.71632e-007 -7.37113e-007 4.59596 13.7792 25.6776 44.3215 -3.66085 -24.1319 25.5677 23.9527 75.467 -28.6718 -21.9516 13.9368 -2.98177e-016 -3.97569e-016 3.18055e-015 -4.47266e-016 -2.98177e-016 -0 -3.47873e-016 -7.45443e-016 6.36111e-015 -2.98177e-016 -3.97569e-016 3.18055e-015 0.015022 -8.543e-005 3.91629e-006 4.96962e-016 -4.96962e-016 -3.18055e-015 -2.98177e-016 -3.97569e-016 3.18055e-015 0.0190212 -0.00119756 -6.73094e-005 1.63425e-007 -2.73764e-007 2.02707e-007 -2.98177e-016 -3.97569e-016 3.18055e-015 0.0123 -0.00325987 -0.000675422 9.93923e-017 3.47873e-016 3.18055e-015 -2.98177e-016 -3.97569e-016 3.18055e-015 -4.47266e-016 -2.98177e-016 -0 -3.47873e-016 -7.45443e-016 6.36111e-015 -58.6738 -24.9088 -23.4827 -172.637 88.1958 170.749 54.0356 36.4366 -60.542 1.58307e-006 -4.30985e-006 4.88294e-006 58.6557 -24.9195 23.4554 173.15 88.1884 -171.277 -54.0672 36.4136 60.5493 -7.24091e-007 1.43121e-007 -2.2983e-006 
1.62982 43.3834 0.939862 0 38.1668 -0 0.257894 -4.57634 -0.263735 0.496972 -9.15376 -0.509171 0.496972 -9.15377 -0.509171 -6.95435e-006 -0.519769 1.05816e-006 -7.25694e-008 -0.684387 -2.0459e-008 -25.0371 -16.4414 -37.6287 -68.0372 55.2291 26.239 -6.84173 3.65341 -34.1429 9.94752 -40.1289 -19.7649 3.18055e-015 -3.18055e-015 3.18055e-015 1.03567e-007 -1.14322e-007 -1.47422e-007 2.07134e-007 -2.28645e-007 -2.94844e-007 3.18055e-015 -3.18055e-015 3.18055e-015 -0.0146083 -9.24166e-005 -3.32778e-007 2.07133e-007 -2.28607e-007 -2.94873e-007 3.18055e-015 -3.18055e-015 3.18055e-015 -0.0187342 -0.00117387 6.02605e-005 2.07129e-007 -2.28597e-007 -2.94883e-007 3.18055e-015 -3.18055e-015 3.18055e-015 -0.0122263 -0.00324051 0.000674498 2.07123e-007 -2.28615e-007 -2.94874e-007 3.18055e-015 -3.18055e-015 3.18055e-015 1.03567e-007 -1.14322e-007 -1.47422e-007 2.07134e-007 -2.28645e-007 -2.94844e-007 4.59596 13.7793 25.6776 44.3215 -3.66085 -24.132 25.5677 23.9527 75.467 -28.7402 -21.9324 14.2178 2.48481e-016 0 6.36111e-015 -9.93923e-017 -2.98177e-016 -6.36111e-015 3.47873e-016 -8.44835e-016 3.18055e-015 2.48481e-016 0 6.36111e-015 0.014971 -8.73331e-005 3.44056e-006 -8.24956e-015 9.59136e-015 6.36111e-015 2.48481e-016 0 6.36111e-015 0.0189967 -0.00119137 -5.70616e-005 1.49089e-016 9.93923e-017 -6.36111e-015 2.48481e-016 0 6.36111e-015 0.0122896 -0.00325534 -0.000674589 5.46658e-016 5.46658e-016 -9.54166e-015 2.48481e-016 0 6.36111e-015 -9.93923e-017 -2.98177e-016 -6.36111e-015 3.47873e-016 -8.44835e-016 3.18055e-015 -58.7908 -23.7822 -23.2642 -171.138 88.6329 169.256 53.2906 36.8289 -60.0085 -5.91847e-007 -4.74e-006 -2.009e-006 58.7725 -23.7932 23.2371 171.832 88.6264 -169.964 -53.323 36.8065 60.0167 3.78017e-007 -3.99311e-006 -6.98173e-007 
1.62982 43.1889 1.37161 0 37.3348 -0 0.256461 -4.37645 -0.265263 0.494705 -8.75399 -0.513066 0.494705 -8.754 -0.513066 -1.48787e-006 -0.778994 2.04853e-006 5.05889e-008 -1.02453 1.06006e-007 -24.6615 -16.6787 -37.5816 -68.4604 55.1262 26.3407 -6.95634 3.73269 -34.3736 10.3197 -40.0114 -19.6379 1.75044e-006 6.58243e-007 -1.25435e-006 -6.2143e-007 6.85914e-007 8.84524e-007 -1.03572e-007 1.14319e-007 1.47421e-007 1.75044e-006 6.58243e-007 -1.25435e-006 -0.0145769 -8.45621e-005 -6.08488e-006 -1.03571e-007 1.143e-007 1.47435e-007 1.75044e-006 6.58243e-007 -1.25435e-006 -0.0187985 -0.00117171 5.16998e-005 -1.13093e-006 -1.34434e-006 3.69622e-007 1.75044e-006 6.58243e-007 -1.25435e-006 -0.0122909 -0.00324831 0.000673266 -1.03566e-007 1.14304e-007 1.47436e-007 1.75044e-006 6.58243e-007 -1.25435e-006 -6.2143e-007 6.85914e-007 8.84524e-007 -1.03572e-007 1.14319e-007 1.47421e-007 4.59596 13.7793 25.6776 44.3215 -3.66084 -24.1319 25.5677 23.9526 75.467 -28.8087 -21.9136 14.4988 5.46658e-016 9.93923e-017 -0 2.48481e-016 9.93923e-017 -3.18055e-015 4.96962e-016 -9.93923e-017 -6.36111e-015 5.46658e-016 9.93923e-017 -0 0.015012 -8.76797e-005 1.08081e-006 -1.70928e-007 2.81416e-007 -1.76318e-007 5.46658e-016 9.93923e-017 -0 0.0189864 -0.0011889 -5.53235e-005 -1.70555e-007 2.81306e-007 -1.76332e-007 5.46658e-016 9.93923e-017 -0 0.0122902 -0.0032508 -0.000677633 9.93923e-017 -3.47873e-016 3.18055e-015 5.46658e-016 9.93923e-017 -0 2.48481e-016 9.93923e-017 -3.18055e-015 4.96962e-016 -9.93923e-017 -6.36111e-015 -58.9113 -22.654 -23.0446 -168.232 89.0686 166.357 52.5371 37.2157 -59.4657 -9.3748e-007 -8.98746e-007 -5.0062e-006 58.8928 -22.6655 23.0177 169.281 89.0634 -167.419 -52.5702 37.1937 59.4749 2.6934e-006 1.70858e-007 6.48331e-006 
